# xmcd
#
# Track frame offsets:
#	150
#	23300
#	40050
#	58775
#	89950
#	115562
#	127875
#	150287
#
# Disc length: 2403 seconds
#
# Revision: 1
# Processed by: cddbd v1.5.1PL2 Copyright (c) Steve Scherf et al.
# Submitted via: audiograbber 1.83.01
#
DISCID=54096108
DTITLE=Danny Adler Band - (LC 6155)(LICD 9.00593 O) Danny Adler Band
DYEAR=1900
DGENRE=Blues
TTITLE0=Stimulation
TTITLE1=Body Spray
TTITLE2=Even Dirty Old Men Need Lovin´
TTITLE3=Summer´s Almost Gone
TTITLE4=Power Cut
TTITLE5=Tribe Vibe ´Part 1/2´
TTITLE6=Tribe Vibe
TTITLE7=The Cleaner
EXTD=
EXTT0=
EXTT1=
EXTT2=
EXTT3=
EXTT4=
EXTT5=
EXTT6=
EXTT7=
PLAYORDER=
